<?xml version="1.0" encoding="UTF-8" standalone="no"?>
<svg
   xmlns:dc="http://purl.org/dc/elements/1.1/"
   xmlns:cc="http://creativecommons.org/ns#"
   xmlns:rdf="http://www.w3.org/1999/02/22-rdf-syntax-ns#"
   xmlns:svg="http://www.w3.org/2000/svg"
   xmlns="http://www.w3.org/2000/svg"
   xmlns:xlink="http://www.w3.org/1999/xlink"
   xmlns:sodipodi="http://sodipodi.sourceforge.net/DTD/sodipodi-0.dtd"
   xmlns:inkscape="http://www.inkscape.org/namespaces/inkscape"
   version="1"
   width="600"
   height="300"
   id="svg413"
   sodipodi:docname="Ulster_Banner_(Tudor_Crown_version).svg"
   inkscape:version="0.92.3 (2405546, 2018-03-11)">
  <title
     id="title1246">Flag of Northern Ireland (Tudor Crown Version)</title>
  <metadata
     id="metadata419">
    <rdf:RDF>
      <cc:Work
         rdf:about="">
        <dc:format>image/svg+xml</dc:format>
        <dc:type
           rdf:resource="http://purl.org/dc/dcmitype/StillImage" />
        <dc:title>Flag of Northern Ireland (Tudor Crown Version)</dc:title>
      </cc:Work>
    </rdf:RDF>
  </metadata>
  <defs
     id="defs417" />
  <sodipodi:namedview
     pagecolor="#ffffff"
     bordercolor="#666666"
     borderopacity="1"
     objecttolerance="10"
     gridtolerance="10"
     guidetolerance="10"
     inkscape:pageopacity="0"
     inkscape:pageshadow="2"
     inkscape:window-width="1471"
     inkscape:window-height="841"
     id="namedview415"
     showgrid="false"
     inkscape:zoom="2.705862"
     inkscape:cx="306.68951"
     inkscape:cy="134.23352"
     inkscape:window-x="57"
     inkscape:window-y="-8"
     inkscape:window-maximized="1"
     inkscape:current-layer="svg413" />
  <rect
     width="600"
     height="300"
     rx="0"
     ry="0"
     x="0"
     y="0"
     fill="#fff"
     fill-opacity="1"
     fill-rule="evenodd"
     stroke="none"
     id="rect2" />
  <rect
     width="600"
     height="60"
     rx="0"
     ry="0"
     x="0"
     y="120"
     id="a"
     fill="#cf142b"
     fill-opacity="1"
     fill-rule="evenodd"
     stroke-opacity="1" />
  <use
     transform="matrix(0 .5 -1 0 450 0)"
     x="0"
     y="0"
     width="600"
     height="300"
     xlink:href="#a"
     fill="#cf142b"
     fill-opacity="1"
     id="use5" />
  <g
     fill-opacity="1"
     stroke="#000"
     stroke-width=".608"
     stroke-miterlimit="4"
     stroke-opacity="1"
     id="g11">
    <path
       d="M211.293 123.723a38.64 7.18 0 1 1-77.28 0 38.64 7.18 0 1 1 77.28 0z"
       transform="matrix(.77773 0 0 .75313 165.723 3.021)"
       fill="#888"
       id="path7" />
    <path
       d="M205.369 123.723a32.715 3.55 0 1 1-65.43 0 32.715 3.55 0 1 1 65.43 0z"
       transform="matrix(.77773 0 0 .75313 165.723 3.021)"
       fill="#731818"
       display="inline"
       id="path9" />
  </g>
  <path
     d="M300 223.47l-19.286-40.066-44.34 3.33L261.427 150l-25.055-36.735 44.341 3.331L300 76.53l19.286 40.066 44.34-3.33L338.573 150l25.055 36.735-44.341-3.331z"
     fill="#fff"
     fill-opacity="1"
     stroke="#2c1317"
     stroke-width="1.00015302"
     stroke-miterlimit="4"
     stroke-opacity="1"
     id="path13" />
  <g
     stroke-miterlimit="4"
     id="g405">
    <g
       stroke-width=".629"
       id="g45">
      <g
         stroke-width=".629"
         stroke-miterlimit="4"
         id="g23">
        <path
           d="M299.071 53.504s-5.243.426-7.413 1.098c-.815.253-2.493.619-3.516 1.023-2.978 1.178-5.408 2.684-5.408 2.684-3.382-2.26-6.372-3.876-10.32-2.915-1.382.336-3.14 1.751-3.957 2.915-1.027 1.462-1.228 3.43-1.236 5.217-.005 1.032.686 3.02.686 3.02l-1.647 5.766 6.04 11.532 7.826 2.06 19.22-2.06-.275-30.34z"
           fill="#d71e1e"
           fill-opacity="1"
           stroke="none"
           id="path15" />
        <path
           d="M275.56 55.274c-1.33-.089-3.627 1.3-4.282 2.424-.544.934-.678 1.5-.67 2.58.005.888.203 1.754.721 2.475.552.767 1.272 1.4 2.167 1.703 1.11.375 2.68.546 3.817.258 1.604-.408 3.27-1.655 4.643-2.58 2.322-1.565 3.805-2.842 6.344-4.023 2.16-1.005 7.48-1.6 7.48-1.6l.103.104-.206-2.58-4.075.517-3.353.98-2.528 1.34-3.043 1.394-4.385-2.425-1.96-.516-.774-.051z"
           fill="#de4f40"
           fill-opacity="1"
           stroke="none"
           id="path17" />
        <path
           d="M283.245 58.42l-3.095 2.476c-.808.647-1.87 1.267-2.889 1.445-1.203.21-2.814.365-3.662-.465-1.404-1.373-.964-2.653.206-3.559.69-.533 2.395-.632 3.25-.464 1.036.203 1.948 1.243 2.807 1.33l.806.082 2.577-.845z"
           fill="#97141c"
           fill-opacity="1"
           stroke="none"
           id="path19" />
        <path
           d="M299.071 53.504s-5.243.426-7.413 1.098c-.815.253-2.493.619-3.516 1.023-2.978 1.178-5.408 2.684-5.408 2.684-3.382-2.26-6.372-3.876-10.32-2.915-1.382.336-3.14 1.751-3.957 2.915-1.027 1.462-1.228 3.43-1.236 5.217-.005 1.032.686 3.02.686 3.02l-1.647 5.766 6.04 11.532 7.826 2.06 19.22-2.06-.275-30.34z"
           fill="none"
           stroke="#000"
           stroke-width=".46512034"
           stroke-linecap="butt"
           stroke-linejoin="miter"
           stroke-miterlimit="4"
           stroke-opacity="1"
           display="inline"
           id="path21" />
      </g>
      <path
         d="M298.293 61.028s-4.811 1.296-7.872 2.697c-2.802 1.282-8.26 4.943-11.315 5.353-7.415.74-9.241-1.293-11.682-4.612l.404 8.922 5.201 10.508 12.526.106 12.525-3.184 1.805-10.827-1.592-8.963z"
         fill="#ba1b24"
         fill-opacity="1"
         stroke="none"
         id="path25" />
      <path
         d="M267.51 72.22s6.781 4.654 10.03 5.188c3.832.63 6.89-.07 10.628-1.123 4.16-1.172 11.61-6.613 11.61-6.613l-1.804 11.252-13.905 3.503-10.827-.318-5.308-10.19-.424-1.7z"
         fill="#97141c"
         fill-opacity="1"
         stroke="none"
         id="path27" />
      <g
         display="inline"
         id="g43">
        <g
           stroke-width=".629"
           stroke-miterlimit="4"
           id="g37">
          <path
             d="M300.929 53.504s5.243.426 7.413 1.098c.815.253 2.493.619 3.516 1.023 2.978 1.178 5.408 2.684 5.408 2.684 3.382-2.26 6.372-3.876 10.32-2.915 1.382.336 3.14 1.751 3.958 2.915 1.026 1.462 1.227 3.43 1.235 5.217.005 1.032-.686 3.02-.686 3.02l1.647 5.766-6.04 11.532-7.826 2.06-19.22-2.06.275-30.34z"
             fill="#d71e1e"
             fill-opacity="1"
             stroke="none"
             id="path29" />
          <path
             d="M324.44 55.274c1.33-.089 3.627 1.3 4.282 2.424.544.934.678 1.5.67 2.58-.005.888-.203 1.754-.721 2.475-.552.767-1.272 1.4-2.167 1.703-1.11.375-2.68.546-3.817.258-1.604-.408-3.27-1.655-4.643-2.58-2.322-1.565-3.805-2.842-6.344-4.023-2.16-1.005-7.48-1.6-7.48-1.6l-.103.104.206-2.58 4.075.517 3.353.98 2.528 1.34 3.043 1.394 4.385-2.425 1.96-.516.774-.051z"
             fill="#de4f40"
             fill-opacity="1"
             stroke="none"
             id="path31" />
          <path
             d="M316.755 58.42l3.095 2.476c.808.647 1.87 1.267 2.889 1.445 1.203.21 2.814.365 3.662-.465 1.404-1.373.964-2.653-.206-3.559-.69-.533-2.395-.632-3.25-.464-1.036.203-1.948 1.243-2.807 1.33l-.806.082-2.577-.845z"
             fill="#97141c"
             fill-opacity="1"
             stroke="none"
             id="path33" />
          <path
             d="M300.929 53.504s5.243.426 7.413 1.098c.815.253 2.493.619 3.516 1.023 2.978 1.178 5.408 2.684 5.408 2.684 3.382-2.26 6.372-3.876 10.32-2.915 1.382.336 3.14 1.751 3.958 2.915 1.026 1.462 1.227 3.43 1.235 5.217.005 1.032-.686 3.02-.686 3.02l1.647 5.766-6.04 11.532-7.826 2.06-19.22-2.06.275-30.34z"
             fill="none"
             stroke="#000"
             stroke-width=".46512034"
             stroke-linecap="butt"
             stroke-linejoin="miter"
             stroke-miterlimit="4"
             stroke-opacity="1"
             display="inline"
             id="path35" />
        </g>
        <path
           d="M301.707 61.028s4.811 1.296 7.872 2.697c2.802 1.282 8.26 4.943 11.315 5.353 7.415.74 9.241-1.293 11.682-4.612l-.404 8.922-5.201 10.508-12.526.106-12.525-3.184-1.805-10.827 1.592-8.963z"
           fill="#ba1b24"
           fill-opacity="1"
           stroke="none"
           id="path39" />
        <path
           d="M332.49 72.22s-6.781 4.654-10.03 5.188c-3.832.63-6.89-.07-10.628-1.123-4.16-1.172-11.61-6.613-11.61-6.613l1.804 11.252 13.905 3.503 10.827-.318 5.308-10.19.424-1.7z"
           fill="#97141c"
           fill-opacity="1"
           stroke="none"
           id="path41" />
      </g>
    </g>
    <g
       stroke-width=".598"
       id="g185">
      <g
         display="inline"
         id="g115">
        <g
           stroke-width=".598"
           font-size="medium"
           font-style="normal"
           font-variant="normal"
           font-weight="400"
           font-stretch="normal"
           letter-spacing="normal"
           word-spacing="normal"
           direction="ltr"
           writing-mode="lr-tb"
           text-anchor="start"
           color="#000"
           visibility="visible"
           font-family="Sans"
           id="g53">
          <path
             d="M304.071 41.913c8.675.954 16.296 4.108 22.096 8.338 6.628 4.834 10.993 11.085 11.462 17.424l-4.26.324c-.336-4.524-3.81-9.983-9.72-14.295-5.912-4.311-14.133-7.474-23.499-7.79l.14-4.265c1.28.043 2.542.127 3.781.264z"
             style="text-indent:0;text-align:start;line-height:normal;text-transform:none;block-progression:tb;marker:none;-inkscape-font-specification:Sans"
             text-decoration="none"
             baseline-shift="baseline"
             fill="#e1bb16"
             fill-opacity="1"
             stroke="none"
             display="inline"
             overflow="visible"
             id="path47" />
          <path
             d="M300.259 43.226l.03-1.577c1.28.043 2.543.127 3.782.264 8.675.954 16.296 4.108 22.096 8.338 6.628 4.834 10.993 11.085 11.462 17.424l-1.298.22c-3.345-11.516-12.183-21.693-36.072-24.669z"
             style="text-indent:0;text-align:start;line-height:normal;text-transform:none;block-progression:tb;marker:none;-inkscape-font-specification:Sans"
             text-decoration="none"
             baseline-shift="baseline"
             fill="#f1dc79"
             fill-opacity="1"
             stroke="none"
             display="inline"
             overflow="visible"
             id="path49" />
          <path
             d="M304.071 41.913c8.675.954 16.296 4.108 22.096 8.338 6.628 4.834 10.993 11.085 11.462 17.424l-4.26.324c-.336-4.524-3.81-9.983-9.72-14.295-5.912-4.311-14.133-7.474-23.499-7.79l.14-4.265c1.28.043 2.542.127 3.781.264z"
             style="text-indent:0;text-align:start;line-height:normal;text-transform:none;block-progression:tb;marker:none;-inkscape-font-specification:Sans"
             text-decoration="none"
             baseline-shift="baseline"
             fill="none"
             stroke="#000"
             stroke-miterlimit="4"
             stroke-opacity="1"
             display="inline"
             overflow="visible"
             stroke-width=".46498685999999995"
             id="path51" />
        </g>
        <g
           stroke-width=".471"
           display="inline"
           id="g63">
          <path
             d="M344.162 62.639a3.695 3.695 0 1 1-7.372-.514 3.695 3.695 0 1 1 7.372.514z"
             fill="#ccc"
             fill-opacity="1"
             stroke="none"
             id="path55" />
          <path
             d="M343.641 62.127a2.867 2.79 3.992 1 1-5.72-.4 2.867 2.79 3.992 1 1 5.72.4z"
             fill="#e6e6e6"
             stroke="none"
             id="path57" />
          <path
             d="M343.43 61.624a2.12 2.13 3.992 1 1-4.232-.295 2.12 2.13 3.992 1 1 4.231.295z"
             fill="#fff"
             fill-opacity="1"
             stroke="none"
             id="path59" />
          <path
             d="M344.162 62.639a3.695 3.695 0 1 1-7.372-.514 3.695 3.695 0 1 1 7.372.514z"
             fill="none"
             stroke="#000"
             stroke-width=".46508424"
             stroke-miterlimit="4"
             stroke-opacity="1"
             display="inline"
             id="path61" />
        </g>
        <g
           stroke-width=".471"
           display="inline"
           id="g73">
          <path
             d="M340.788 55.952a3.695 3.695 0 1 1-7.371-.515 3.695 3.695 0 1 1 7.371.515z"
             fill="#ccc"
             fill-opacity="1"
             stroke="none"
             id="path65" />
          <path
             d="M340.268 55.44a2.867 2.79 3.992 1 1-5.72-.4 2.867 2.79 3.992 1 1 5.72.4z"
             fill="#e6e6e6"
             stroke="none"
             id="path67" />
          <path
             d="M340.056 54.937a2.12 2.13 3.992 1 1-4.231-.295 2.12 2.13 3.992 1 1 4.23.295z"
             fill="#fff"
             fill-opacity="1"
             stroke="none"
             id="path69" />
          <path
             d="M340.788 55.952a3.695 3.695 0 1 1-7.371-.515 3.695 3.695 0 1 1 7.371.515z"
             fill="none"
             stroke="#000"
             stroke-width=".46508424"
             stroke-miterlimit="4"
             stroke-opacity="1"
             display="inline"
             id="path71" />
        </g>
        <g
           stroke-width=".471"
           display="inline"
           id="g83">
          <path
             d="M335.958 50.396a3.695 3.695 0 1 1-7.372-.514 3.695 3.695 0 1 1 7.372.514z"
             fill="#ccc"
             fill-opacity="1"
             stroke="none"
             id="path75" />
          <path
             d="M335.437 49.884a2.867 2.79 3.992 1 1-5.72-.399 2.867 2.79 3.992 1 1 5.72.4z"
             fill="#e6e6e6"
             stroke="none"
             id="path77" />
          <path
             d="M335.225 49.381a2.12 2.13 3.992 1 1-4.231-.295 2.12 2.13 3.992 1 1 4.23.295z"
             fill="#fff"
             fill-opacity="1"
             stroke="none"
             id="path79" />
          <path
             d="M335.958 50.396a3.695 3.695 0 1 1-7.372-.514 3.695 3.695 0 1 1 7.372.514z"
             fill="none"
             stroke="#000"
             stroke-width=".46508424"
             stroke-miterlimit="4"
             stroke-opacity="1"
             display="inline"
             id="path81" />
        </g>
        <g
           stroke-width=".471"
           display="inline"
           id="g93">
          <path
             d="M329.796 45.907a3.695 3.695 0 1 1-7.372-.514 3.695 3.695 0 1 1 7.372.514z"
             fill="#ccc"
             fill-opacity="1"
             stroke="none"
             id="path85" />
          <path
             d="M329.275 45.395a2.867 2.79 3.992 1 1-5.72-.399 2.867 2.79 3.992 1 1 5.72.4z"
             fill="#e6e6e6"
             stroke="none"
             id="path87" />
          <path
             d="M329.063 44.892a2.12 2.13 3.992 1 1-4.23-.295 2.12 2.13 3.992 1 1 4.23.295z"
             fill="#fff"
             fill-opacity="1"
             stroke="none"
             id="path89" />
          <path
             d="M329.796 45.907a3.695 3.695 0 1 1-7.372-.514 3.695 3.695 0 1 1 7.372.514z"
             fill="none"
             stroke="#000"
             stroke-width=".46508424"
             stroke-miterlimit="4"
             stroke-opacity="1"
             display="inline"
             id="path91" />
        </g>
        <g
           stroke-width=".471"
           display="inline"
           id="g103">
          <path
             d="M323.107 42.058a3.695 3.695 0 1 1-7.372-.514 3.695 3.695 0 1 1 7.372.514z"
             fill="#ccc"
             fill-opacity="1"
             stroke="none"
             id="path95" />
          <path
             d="M322.586 41.546a2.867 2.79 3.992 1 1-5.72-.399 2.867 2.79 3.992 1 1 5.72.4z"
             fill="#e6e6e6"
             stroke="none"
             id="path97" />
          <path
             d="M322.374 41.043a2.12 2.13 3.992 1 1-4.231-.295 2.12 2.13 3.992 1 1 4.23.295z"
             fill="#fff"
             fill-opacity="1"
             stroke="none"
             id="path99" />
          <path
             d="M323.107 42.058a3.695 3.695 0 1 1-7.372-.514 3.695 3.695 0 1 1 7.372.514z"
             fill="none"
             stroke="#000"
             stroke-width=".46508424"
             stroke-miterlimit="4"
             stroke-opacity="1"
             display="inline"
             id="path101" />
        </g>
        <g
           stroke-width=".471"
           display="inline"
           id="g113">
          <path
             d="M315.726 39.803a3.695 3.695 0 1 1-7.372-.514 3.695 3.695 0 1 1 7.372.514z"
             fill="#ccc"
             fill-opacity="1"
             stroke="none"
             id="path105" />
          <path
             d="M315.205 39.292a2.867 2.79 3.992 1 1-5.72-.4 2.867 2.79 3.992 1 1 5.72.4z"
             fill="#e6e6e6"
             stroke="none"
             id="path107" />
          <path
             d="M314.993 38.788a2.12 2.13 3.992 1 1-4.23-.295 2.12 2.13 3.992 1 1 4.23.295z"
             fill="#fff"
             fill-opacity="1"
             stroke="none"
             id="path109" />
          <path
             d="M315.726 39.803a3.695 3.695 0 1 1-7.372-.514 3.695 3.695 0 1 1 7.372.514z"
             fill="none"
             stroke="#000"
             stroke-width=".46508424"
             stroke-miterlimit="4"
             stroke-opacity="1"
             display="inline"
             id="path111" />
        </g>
      </g>
      <g
         stroke-width=".598"
         font-size="medium"
         font-style="normal"
         font-variant="normal"
         font-weight="400"
         font-stretch="normal"
         letter-spacing="normal"
         word-spacing="normal"
         direction="ltr"
         writing-mode="lr-tb"
         text-anchor="start"
         color="#000"
         visibility="visible"
         font-family="Sans"
         id="g123">
        <path
           d="M295.929 41.913c-8.675.954-16.296 4.108-22.096 8.338-6.628 4.834-10.993 11.085-11.462 17.424l4.26.324c.336-4.524 3.81-9.983 9.72-14.295 5.912-4.311 14.133-7.474 23.499-7.79l-.14-4.265c-1.28.043-2.542.127-3.781.264z"
           style="text-indent:0;text-align:start;line-height:normal;text-transform:none;block-progression:tb;marker:none;-inkscape-font-specification:Sans"
           text-decoration="none"
           baseline-shift="baseline"
           fill="#e1bb16"
           fill-opacity="1"
           stroke="none"
           display="inline"
           overflow="visible"
           id="path117" />
        <path
           d="M299.741 43.226l-.03-1.577c-1.28.043-2.543.127-3.782.264-8.675.954-16.296 4.108-22.096 8.338-6.628 4.834-10.993 11.085-11.462 17.424l1.298.22c3.345-11.516 12.183-21.693 36.072-24.669z"
           style="text-indent:0;text-align:start;line-height:normal;text-transform:none;block-progression:tb;marker:none;-inkscape-font-specification:Sans"
           text-decoration="none"
           baseline-shift="baseline"
           fill="#f1dc79"
           fill-opacity="1"
           stroke="none"
           display="inline"
           overflow="visible"
           id="path119" />
        <path
           d="M295.929 41.913c-8.675.954-16.296 4.108-22.096 8.338-6.628 4.834-10.993 11.085-11.462 17.424l4.26.324c.336-4.524 3.81-9.983 9.72-14.295 5.912-4.311 14.133-7.474 23.499-7.79l-.14-4.265c-1.28.043-2.542.127-3.781.264z"
           style="text-indent:0;text-align:start;line-height:normal;text-transform:none;block-progression:tb;marker:none;-inkscape-font-specification:Sans"
           text-decoration="none"
           baseline-shift="baseline"
           fill="none"
           stroke="#000"
           stroke-miterlimit="4"
           stroke-opacity="1"
           display="inline"
           overflow="visible"
           stroke-width=".46498685999999995"
           id="path121" />
      </g>
      <g
         stroke-width=".471"
         display="inline"
         id="g133">
        <path
           d="M255.838 62.639a3.695 3.695 0 1 1 7.372-.514 3.695 3.695 0 1 1-7.372.514z"
           fill="#ccc"
           fill-opacity="1"
           stroke="none"
           id="path125" />
        <path
           d="M256.359 62.127a2.79 2.867 86.008 1 1 5.72-.4 2.79 2.867 86.008 1 1-5.72.4z"
           fill="#e6e6e6"
           stroke="none"
           id="path127" />
        <path
           d="M256.57 61.624a2.12 2.13-3.992 1 1 4.232-.295 2.12 2.13-3.992 1 1-4.231.295z"
           fill="#fff"
           fill-opacity="1"
           stroke="none"
           id="path129" />
        <path
           d="M255.838 62.639a3.695 3.695 0 1 1 7.372-.514 3.695 3.695 0 1 1-7.372.514z"
           fill="none"
           stroke="#000"
           stroke-width=".46508424"
           stroke-miterlimit="4"
           stroke-opacity="1"
           display="inline"
           id="path131" />
      </g>
      <g
         stroke-width=".471"
         display="inline"
         id="g143">
        <path
           d="M259.212 55.952a3.695 3.695 0 1 1 7.371-.515 3.695 3.695 0 1 1-7.371.515z"
           fill="#ccc"
           fill-opacity="1"
           stroke="none"
           id="path135" />
        <path
           d="M259.732 55.44a2.79 2.867 86.008 1 1 5.72-.4 2.79 2.867 86.008 1 1-5.72.4z"
           fill="#e6e6e6"
           stroke="none"
           id="path137" />
        <path
           d="M259.944 54.937a2.12 2.13-3.992 1 1 4.232-.295 2.12 2.13-3.992 1 1-4.232.295z"
           fill="#fff"
           fill-opacity="1"
           stroke="none"
           id="path139" />
        <path
           d="M259.212 55.952a3.695 3.695 0 1 1 7.371-.515 3.695 3.695 0 1 1-7.371.515z"
           fill="none"
           stroke="#000"
           stroke-width=".46508424"
           stroke-miterlimit="4"
           stroke-opacity="1"
           display="inline"
           id="path141" />
      </g>
      <g
         stroke-width=".471"
         display="inline"
         id="g153">
        <path
           d="M264.042 50.396a3.695 3.695 0 1 1 7.372-.514 3.695 3.695 0 1 1-7.372.514z"
           fill="#ccc"
           fill-opacity="1"
           stroke="none"
           id="path145" />
        <path
           d="M264.563 49.884a2.79 2.867 86.008 1 1 5.72-.399 2.79 2.867 86.008 1 1-5.72.4z"
           fill="#e6e6e6"
           stroke="none"
           id="path147" />
        <path
           d="M264.775 49.381a2.12 2.13-3.992 1 1 4.231-.295 2.12 2.13-3.992 1 1-4.23.295z"
           fill="#fff"
           fill-opacity="1"
           stroke="none"
           id="path149" />
        <path
           d="M264.042 50.396a3.695 3.695 0 1 1 7.372-.514 3.695 3.695 0 1 1-7.372.514z"
           fill="none"
           stroke="#000"
           stroke-width=".46508424"
           stroke-miterlimit="4"
           stroke-opacity="1"
           display="inline"
           id="path151" />
      </g>
      <g
         stroke-width=".471"
         display="inline"
         id="g163">
        <path
           d="M270.204 45.907a3.695 3.695 0 1 1 7.372-.514 3.695 3.695 0 1 1-7.372.514z"
           fill="#ccc"
           fill-opacity="1"
           stroke="none"
           id="path155" />
        <path
           d="M270.725 45.395a2.79 2.867 86.008 1 1 5.72-.399 2.79 2.867 86.008 1 1-5.72.4z"
           fill="#e6e6e6"
           stroke="none"
           id="path157" />
        <path
           d="M270.937 44.892a2.12 2.13-3.992 1 1 4.23-.295 2.12 2.13-3.992 1 1-4.23.295z"
           fill="#fff"
           fill-opacity="1"
           stroke="none"
           id="path159" />
        <path
           d="M270.204 45.907a3.695 3.695 0 1 1 7.372-.514 3.695 3.695 0 1 1-7.372.514z"
           fill="none"
           stroke="#000"
           stroke-width=".46508424"
           stroke-miterlimit="4"
           stroke-opacity="1"
           display="inline"
           id="path161" />
      </g>
      <g
         stroke-width=".471"
         display="inline"
         id="g173">
        <path
           d="M276.893 42.058a3.695 3.695 0 1 1 7.372-.514 3.695 3.695 0 1 1-7.372.514z"
           fill="#ccc"
           fill-opacity="1"
           stroke="none"
           id="path165" />
        <path
           d="M277.414 41.546a2.79 2.867 86.008 1 1 5.72-.399 2.79 2.867 86.008 1 1-5.72.4z"
           fill="#e6e6e6"
           stroke="none"
           id="path167" />
        <path
           d="M277.626 41.043a2.12 2.13-3.992 1 1 4.231-.295 2.12 2.13-3.992 1 1-4.23.295z"
           fill="#fff"
           fill-opacity="1"
           stroke="none"
           id="path169" />
        <path
           d="M276.893 42.058a3.695 3.695 0 1 1 7.372-.514 3.695 3.695 0 1 1-7.372.514z"
           fill="none"
           stroke="#000"
           stroke-width=".46508424"
           stroke-miterlimit="4"
           stroke-opacity="1"
           display="inline"
           id="path171" />
      </g>
      <g
         stroke-width=".471"
         display="inline"
         id="g183">
        <path
           d="M284.274 39.803a3.695 3.695 0 1 1 7.372-.514 3.695 3.695 0 1 1-7.372.514z"
           fill="#ccc"
           fill-opacity="1"
           stroke="none"
           id="path175" />
        <path
           d="M284.795 39.292a2.79 2.867 86.008 1 1 5.72-.4 2.79 2.867 86.008 1 1-5.72.4z"
           fill="#e6e6e6"
           stroke="none"
           id="path177" />
        <path
           d="M285.007 38.788a2.12 2.13-3.992 1 1 4.23-.295 2.12 2.13-3.992 1 1-4.23.295z"
           fill="#fff"
           fill-opacity="1"
           stroke="none"
           id="path179" />
        <path
           d="M284.274 39.803a3.695 3.695 0 1 1 7.372-.514 3.695 3.695 0 1 1-7.372.514z"
           fill="none"
           stroke="#000"
           stroke-width=".46508424"
           stroke-miterlimit="4"
           stroke-opacity="1"
           display="inline"
           id="path181" />
      </g>
    </g>
    <g
       stroke-width=".598"
       id="g253">
      <path
         d="M298.35 22.372c-.521-2.461-2.735-4.38-4.892-6.316 4.384.472 8.767.33 13.151 0-1.98 2.019-4.808 3.802-5.007 6.316 2.553-1.107 4.198-3.348 6.163-5.189-.466 3.706-.145 7.411 0 11.117-1.953-1.567-3.618-3.554-6.163-4.257.757 2.3 2.62 4.066 5.056 5.559h-13.346c2.209-1.545 4.213-3.226 5.038-5.559-2.425.782-4.168 2.806-6.115 4.459.343-3.74.304-7.478 0-11.218 1.875 2.036 3.623 4.336 6.115 5.088z"
         fill="#edd05c"
         fill-opacity="1"
         stroke="#000"
         stroke-opacity="1"
         stroke-width=".46498685999999995"
         id="path187" />
      <path
         d="M297.09 22.829a2.91 2.91 0 1 1 5.82 0 2.91 2.91 0 1 1-5.82 0z"
         fill="#ccc"
         fill-opacity="1"
         stroke="none"
         id="path189" />
      <path
         d="M297.527 22.455a2.197 2.258 90 1 1 4.516 0 2.197 2.258 90 1 1-4.516 0z"
         fill="#e6e6e6"
         stroke="none"
         id="path191" />
      <path
         d="M297.722 22.072a1.67 1.677 0 1 1 3.34 0 1.67 1.677 0 1 1-3.34 0z"
         fill="#fff"
         fill-opacity="1"
         stroke="none"
         id="path193" />
      <path
         d="M297.09 22.829a2.91 2.91 0 1 1 5.82 0 2.91 2.91 0 1 1-5.82 0z"
         fill="none"
         stroke="#000"
         stroke-width=".46498685999999995"
         stroke-miterlimit="4"
         stroke-opacity="1"
         display="inline"
         id="path195" />
      <g
         id="g209">
        <g
           stroke-width=".598"
           stroke-miterlimit="4"
           fill-opacity="1"
           id="g201">
          <path
             d="M182.537 47.735a10.542 10.152 0 1 1-21.084 0 10.542 10.152 0 1 1 21.084 0z"
             transform="matrix(.74944 0 0 .77825 171.1 .532)"
             fill="#eac634"
             stroke="#000"
             stroke-width=".609"
             stroke-miterlimit="4"
             stroke-opacity="1"
             id="path197" />
          <path
             d="M303.128 35.363a4.518 4.387 0 1 1-9.037 0 4.518 4.387 0 1 1 9.037 0z"
             fill="#f1dc79"
             stroke="none"
             id="path199" />
        </g>
        <path
           d="M299.68 28.976c-.73 0-1.313.584-1.313 1.312v5.245H293.1c-.728 0-1.336.584-1.336 1.312v.587c0 .728.608 1.312 1.336 1.312h13.826c.729 0 1.312-.584 1.312-1.312v-.587c0-.728-.583-1.312-1.312-1.312h-5.268v-5.245c0-.728-.584-1.312-1.312-1.312h-.666z"
           fill="#eac634"
           fill-opacity="1"
           stroke="none"
           id="path203" />
        <path
           d="M291.831 37.137l7.873-.069.342-8.146-1.506.479-.137 6.23-5.477-.069-1.095 1.164v.41zM301.415 35.768l.01 1.408 6.768.03v-.754l-1.095-.958-5.477-.069-.206.343z"
           fill="#f1dc79"
           fill-opacity="1"
           stroke="none"
           id="path205" />
        <path
           d="M299.68 28.976c-.73 0-1.313.584-1.313 1.312v5.245H293.1c-.728 0-1.336.584-1.336 1.312v.587c0 .728.608 1.312 1.336 1.312h13.826c.729 0 1.312-.584 1.312-1.312v-.587c0-.728-.583-1.312-1.312-1.312h-5.268v-5.245c0-.728-.584-1.312-1.312-1.312h-.666z"
           fill="none"
           stroke="#000"
           stroke-width=".46498685999999995"
           stroke-miterlimit="4"
           stroke-opacity="1"
           display="inline"
           id="path207" />
      </g>
      <g
         id="g251">
        <g
           stroke-width=".598"
           transform="matrix(.77757 0 0 .77757 152.857 16.395)"
           id="g219">
          <g
             transform="translate(16.75 -19.478)"
             id="g215">
            <rect
               width="14.761"
               height="18.541"
               ry="2.603"
               x="164.955"
               y="54.389"
               fill="#f3d948"
               fill-opacity="1"
               stroke="#333"
               stroke-opacity="1"
               id="rect211" />
            <rect
               width="4.058"
               height="21.257"
               ry="2.029"
               x="165.399"
               y="53.306"
               fill="#eac634"
               fill-opacity="1"
               stroke="#000"
               stroke-width=".598"
               stroke-miterlimit="4"
               stroke-opacity="1"
               transform="translate(-1.293 .143)"
               id="rect213" />
          </g>
          <rect
             width="4.058"
             height="21.257"
             ry="2.029"
             x="193.557"
             y="33.971"
             fill="#eac634"
             fill-opacity="1"
             stroke="#000"
             stroke-opacity="1"
             display="inline"
             id="rect217" />
        </g>
        <g
           stroke-width=".471"
           id="g249">
          <path
             d="M296.305 45.323a3.695 3.695 0 1 1 7.39 0 3.695 3.695 0 1 1-7.39 0z"
             fill="#ccc"
             fill-opacity="1"
             stroke="none"
             id="path221" />
          <path
             d="M296.86 44.849a2.79 2.867 90 1 1 5.734 0 2.79 2.867 90 1 1-5.734 0z"
             fill="#e6e6e6"
             stroke="none"
             id="path223" />
          <path
             d="M297.107 44.362a2.12 2.13 0 1 1 4.241 0 2.12 2.13 0 1 1-4.241 0z"
             fill="#fff"
             fill-opacity="1"
             stroke="none"
             id="path225" />
          <path
             d="M296.305 45.323a3.695 3.695 0 1 1 7.39 0 3.695 3.695 0 1 1-7.39 0z"
             fill="none"
             stroke="#000"
             stroke-width=".46508424"
             stroke-miterlimit="4"
             stroke-opacity="1"
             display="inline"
             id="path227" />
          <g
             display="inline"
             id="g237">
            <path
               d="M296.305 50.226a3.695 3.695 0 1 1 7.39 0 3.695 3.695 0 1 1-7.39 0z"
               fill="#ccc"
               fill-opacity="1"
               stroke="none"
               id="path229" />
            <path
               d="M296.86 49.751a2.79 2.867 90 1 1 5.734 0 2.79 2.867 90 1 1-5.734 0z"
               fill="#e6e6e6"
               stroke="none"
               id="path231" />
            <path
               d="M297.107 49.264a2.12 2.13 0 1 1 4.241 0 2.12 2.13 0 1 1-4.241 0z"
               fill="#fff"
               fill-opacity="1"
               stroke="none"
               id="path233" />
            <path
               d="M296.305 50.226a3.695 3.695 0 1 1 7.39 0 3.695 3.695 0 1 1-7.39 0z"
               fill="none"
               stroke="#000"
               stroke-width=".46508424"
               stroke-miterlimit="4"
               stroke-opacity="1"
               display="inline"
               id="path235" />
          </g>
          <g
             display="inline"
             id="g247">
            <path
               d="M296.305 55.57a3.695 3.695 0 1 1 7.39 0 3.695 3.695 0 1 1-7.39 0z"
               fill="#ccc"
               fill-opacity="1"
               stroke="none"
               id="path239" />
            <path
               d="M296.86 55.096a2.79 2.867 90 1 1 5.734 0 2.79 2.867 90 1 1-5.734 0z"
               fill="#e6e6e6"
               stroke="none"
               id="path241" />
            <path
               d="M297.107 54.61a2.12 2.13 0 1 1 4.241 0 2.12 2.13 0 1 1-4.241 0z"
               fill="#fff"
               fill-opacity="1"
               stroke="none"
               id="path243" />
            <path
               d="M296.305 55.57a3.695 3.695 0 1 1 7.39 0 3.695 3.695 0 1 1-7.39 0z"
               fill="none"
               stroke="#000"
               stroke-width=".46508424"
               stroke-miterlimit="4"
               stroke-opacity="1"
               display="inline"
               id="path245" />
          </g>
        </g>
      </g>
    </g>
    <g
       stroke-width=".598"
       id="g289">
      <path
         d="M271.21 92.75s-3.819-12.47-6.557-18.366c-1.333-2.87-4.098-8.206-4.098-8.206l5.61-3.237 2.887-.404c-1.419 3.784-1.32 6.43-1.348 9.172 2.973-.513 4.34-2.77 5.935-4.317l1.888 7.959c-2.977-1.323-4.962-.661-6.88.134 0 0 1.23 2.403 2.159 3.238 1.063.955 2.235 1.5 3.642 1.753 1.33.239 2.83.32 4.046-.27 2.562-1.244 3.867-3.956 3.507-3.776 0 0 .257-2.38-.404-3.238-.496-.641-1.513-1.162-2.293-.944-1.231.345-1.889 3.103-1.889 3.103s-1.183-2.348-1.483-3.642c-.265-1.14-.66-2.462-.135-3.507.391-.78 1.3-1.325 2.158-1.484 1.136-.21 3.237.81 3.237.81s-.627-2.115-.81-3.238c-.093-.577.047-1.348.27-1.888.511-1.234 2.024-2.293 1.844-2.3-.18-.008 1.546.647 2.345 1.717.35.469.674 1.182.725 1.764.1 1.133.012 3.337.012 3.337s1.785-1.505 2.939-1.58c.87-.057 1.885.247 2.456.907.766.885.708 2.263.732 3.433.026 1.328-.543 3.895-.543 3.895s-1.316-2.512-2.593-2.543c-.81-.02-1.669.735-1.99 1.479-.431.993.403 3.237.403 3.237 5.047 3.94 10.27-.101 11.34-4.04v-1.483c-2.113.291-3.012.662-5.125 3.102l-.675-9.846c2.023 1.829 3.777 2.486 5.8 2.158-.19-2.86-1.624-4.135-3.96-6.638l2.293-.675h6.863l2.293.675c-2.336 2.503-3.943 3.777-4.133 6.638 2.023.328 3.777-.329 5.8-2.158l-.675 9.846c-2.113-2.44-3.012-2.811-5.125-3.102v1.484c1.07 3.938 6.293 7.98 11.34 4.04 0 0 .834-2.245.404-3.238-.322-.744-1.18-1.499-1.99-1.48-1.278.032-2.594 2.544-2.594 2.544s-.57-2.567-.543-3.895c.024-1.17-.034-2.548.732-3.433.571-.66 1.585-.964 2.456-.907 1.154.075 2.94 1.58 2.94 1.58s-.089-2.204.01-3.337c.052-.582.377-1.295.726-1.764.799-1.07 2.525-1.725 2.345-1.718-.18.008 1.333 1.067 1.844 2.3.223.54.363 1.312.27 1.89-.183 1.122-.81 3.236-.81 3.236s2.1-1.02 3.237-.809c.859.16 1.767.703 2.158 1.484.525 1.045.13 2.367-.135 3.507-.3 1.294-1.483 3.642-1.483 3.642s-.658-2.758-1.889-3.103c-.78-.218-1.797.303-2.293.944-.661.858-.404 3.238-.404 3.238-.36-.18.945 2.532 3.507 3.776 1.216.59 2.716.509 4.046.27 1.407-.252 2.58-.798 3.642-1.753.93-.835 2.158-3.238 2.158-3.238-1.917-.795-3.902-1.457-6.879-.134l1.888-7.959c1.596 1.546 2.962 3.804 5.935 4.317-.028-2.742.07-5.388-1.348-9.172l2.62.482 5.877 3.16s-2.765 5.336-4.098 8.205c-2.738 5.896-6.558 18.366-6.558 18.366l-.118.336c-19.54-4.374-38.638-3.864-57.46-.336z"
         fill="#eac634"
         fill-opacity="1"
         stroke="none"
         display="inline"
         id="path255" />
      <path
         d="M280.639 91.247c-3.151.412-6.293.916-9.428 1.503 0 0-3.82-12.47-6.558-18.366-1.333-2.87-4.098-8.206-4.098-8.206l5.61-3.237 2.887-.404c-1.419 3.784-1.32 6.43-1.348 9.172 2.973-.513 4.34-2.77 5.935-4.317l1.888 7.959c-2.977-1.323-4.962-.661-6.88.134 0 0 1.23 2.403 2.159 3.238 1.063.955 2.235 1.5 3.642 1.753 1.33.239 2.83.32 4.046-.27l2.145 11.041zm40.867-11.04c1.216.59 2.716.508 4.046.27 1.407-.253 2.58-.8 3.642-1.754.93-.835 2.158-3.238 2.158-3.238-1.917-.795-3.902-1.457-6.879-.134l1.888-7.959c1.596 1.546 2.962 3.804 5.935 4.317-.028-2.742.07-5.388-1.348-9.172l2.62.482 5.877 3.16s-2.765 5.336-4.098 8.205c-2.738 5.896-6.558 18.366-6.558 18.366l-.118.336a128.602 128.602 0 0 0-10.532-1.9l-.308.282 3.675-11.262z"
         fill="#e1bb16"
         fill-opacity="1"
         stroke="none"
         display="inline"
         id="path257" />
      <path
         d="M276.776 91.798a176.14 176.14 0 0 0-5.565.952s-3.82-12.47-6.558-18.366c-1.333-2.87-4.098-8.206-4.098-8.206l5.61-3.237 2.887-.404c-1.419 3.784-1.32 6.43-1.348 9.172 2.973-.513 4.34-2.77 5.935-4.317l1.888 7.959c-2.977-1.323-4.962-.661-6.88.134 0 0 1.23 2.403 2.159 3.238 1.063.955 2.235 1.5 3.642 1.753l2.328 11.322zm48.776-11.322c1.407-.252 2.58-.798 3.642-1.753.93-.835 2.158-3.238 2.158-3.238-1.917-.795-3.902-1.457-6.879-.134l1.888-7.959c1.596 1.546 2.962 3.804 5.935 4.317-.028-2.742.07-5.388-1.348-9.172l2.62.482 5.877 3.16s-2.765 5.336-4.098 8.205c-2.738 5.896-6.558 18.366-6.558 18.366l-.118.336a128.575 128.575 0 0 0-5.705-1.142l-.25-.256 2.836-11.212z"
         fill="#c6ad18"
         fill-opacity="1"
         stroke="none"
         display="inline"
         id="path259" />
      <path
         d="M306.25 90.072l.742-12.953c-2.62-.744-4.685-3.095-5.314-5.41v-1.484c2.113.291 3.012.662 5.125 3.102l.675-9.846c-2.023 1.829-3.777 2.486-5.8 2.158.19-2.86 1.71-4.077 4.046-6.58l-2.293-.675h-6.862l-2.293.674c2.335 2.504 3.856 3.72 4.046 6.58-2.023.33-3.777-.328-5.8-2.157l.675 9.846c2.113-2.44 3.012-2.811 5.125-3.102v1.484c-.633 2.33-2.72 4.695-5.362 5.423l.818 12.94c4.172-.159 8.44-.178 12.471 0z"
         fill="#edd05c"
         fill-opacity="1"
         stroke="none"
         display="inline"
         id="path261" />
      <path
         d="M336.144 72.137c-.648 1.294-.322 1.226-.797 2.247-2.738 5.896-6.558 18.366-6.558 18.366l-.118.336c-.942-.21-1.882-.41-2.822-.598l-.133-.037 7.995-21.459c-.973.018 3.116 1.222 2.433 1.145zm-62.347 20.148c-.863.149-1.725.304-2.586.465 0 0-3.82-12.47-6.558-18.366-.573-1.234-.29-.54-1.059-2.066l2.972-1.081 7.23 21.048z"
         fill="#b39d17"
         fill-opacity="1"
         stroke="none"
         display="inline"
         id="path263" />
      <path
         d="M260.267 66.28l1.983 3.418 5.535-2.267 1.344-4.763h-2.516l-6.346 3.611z"
         fill="#eac634"
         fill-opacity="1"
         stroke="none"
         id="path265" />
      <path
         d="M339.633 66.32l-1.983 3.42-5.676-2.408-1.203-4.623h2.516l6.346 3.611z"
         fill="#eac634"
         fill-opacity="1"
         stroke="none"
         display="inline"
         id="path267" />
      <path
         d="M269.786 75.251l-1.313-3.72 1.641-.656 3.282-3.283 2.08 7.878-2.955-.875h-1.532l-1.203.656z"
         fill="#d2b225"
         fill-opacity="1"
         stroke="none"
         id="path269" />
      <path
         d="M330.06 75.183l1.312-3.72-1.64-.657-3.283-3.282-2.08 7.878 2.955-.876h1.532l1.203.657z"
         fill="#d2b225"
         fill-opacity="1"
         stroke="none"
         display="inline"
         id="path271" />
      <path
         d="M271.536 70l1.532 4.266 2.517 1.204-1.86-7.987-2.189 2.516z"
         fill="#eac634"
         fill-opacity="1"
         stroke="none"
         id="path273" />
      <path
         d="M328.582 69.986l-1.532 4.267-2.516 1.203 1.86-7.987 2.188 2.517z"
         fill="#eac634"
         fill-opacity="1"
         stroke="none"
         display="inline"
         id="path275" />
      <path
         d="M261.36 67.373l7.332-2.954.437-1.75h-2.954l-5.799 3.61.985 1.094z"
         fill="#edd05c"
         fill-opacity="1"
         stroke="none"
         id="path277" />
      <path
         d="M338.594 67.36l-7.331-2.955-.438-1.75 2.764.38 5.99 3.23-.985 1.095z"
         fill="#edd05c"
         fill-opacity="1"
         stroke="none"
         display="inline"
         id="path279" />
      <path
         d="M277.999 73.328s-.584-2.098-.28-3.085c.165-.54.53-1.161 1.074-1.308 1.38-.373 4.02 1.495 4.02 1.495s-.722-3.294-.608-4.954c.054-.788.608-2.29.608-2.29s.835.996 1.075 1.589c.706 1.745.981 5.562.981 5.562s1.967-2.172 3.272-2.15c.648.01 1.28.552 1.59 1.122.379.698.093 2.383.093 2.383l1.542 1.963.327-5.749-.794-1.822-2.01-.748-1.402.233-1.917 1.356-.046-3.74-.795-1.542-2.056-1.729-1.823 2.243-.561 2.01.935 3.459-2.851-.841-1.543.233-1.262 1.496.187 2.71 1.776 4.02.468-1.916z"
         fill="#edd05c"
         fill-opacity="1"
         stroke="none"
         id="path281" />
      <path
         d="M321.993 73.141s.584-2.098.28-3.085c-.165-.54-.53-1.161-1.074-1.308-1.38-.373-4.02 1.495-4.02 1.495s.722-3.294.608-4.954c-.055-.788-.608-2.29-.608-2.29s-.835.996-1.075 1.589c-.707 1.745-.982 5.562-.982 5.562s-1.966-2.172-3.271-2.15c-.649.01-1.28.552-1.59 1.121-.379.7-.093 2.384-.093 2.384l-1.542 1.963-.327-5.749.794-1.823 2.01-.747 1.402.233 1.916 1.356.047-3.74.795-1.542 2.056-1.73 1.823 2.244.56 2.01-.934 3.459 2.851-.841 1.543.233 1.262 1.496-.187 2.71-1.777 4.02-.467-1.916z"
         fill="#edd05c"
         fill-opacity="1"
         stroke="none"
         display="inline"
         id="path283" />
      <path
         d="M304.827 59.84l1.07-.699-2.335-.889-6.556.223-2.667.555 1.246 1.152 2.929-.438.107 10.734v16.101l3.435.107-.751-27.157 3.522.31z"
         fill="#f1dc79"
         fill-opacity="1"
         stroke="none"
         id="path285" />
      <path
         d="M271.21 92.75s-3.819-12.47-6.557-18.366c-1.333-2.87-4.098-8.206-4.098-8.206l5.61-3.237 2.887-.404c-1.419 3.784-1.32 6.43-1.348 9.172 2.973-.513 4.34-2.77 5.935-4.317l1.888 7.959c-2.977-1.323-4.962-.661-6.88.134 0 0 1.23 2.403 2.159 3.238 1.063.955 2.235 1.5 3.642 1.753 1.33.239 2.83.32 4.046-.27 2.562-1.244 3.867-3.956 3.507-3.776 0 0 .257-2.38-.404-3.238-.496-.641-1.513-1.162-2.293-.944-1.231.345-1.889 3.103-1.889 3.103s-1.183-2.348-1.483-3.642c-.265-1.14-.66-2.462-.135-3.507.391-.78 1.3-1.325 2.158-1.484 1.136-.21 3.237.81 3.237.81s-.627-2.115-.81-3.238c-.093-.577.047-1.348.27-1.888.511-1.234 1.326-1.886 1.844-2.592.693.691 1.546.939 2.345 2.01.35.468.674 1.181.725 1.763.1 1.133.012 3.337.012 3.337s1.785-1.505 2.939-1.58c.87-.057 1.885.247 2.456.907.766.885.708 2.263.732 3.433.026 1.328-.543 3.895-.543 3.895s-1.316-2.512-2.593-2.543c-.81-.02-1.669.735-1.99 1.479-.431.993.403 3.237.403 3.237 5.047 3.94 10.27-.101 11.34-4.04v-1.483c-2.113.291-3.012.662-5.125 3.102l-.675-9.846c2.023 1.829 3.777 2.486 5.8 2.158-.19-2.86-1.71-4.074-4.046-6.577l2.293-.674h6.862l2.293.674c-2.335 2.503-3.856 3.716-4.046 6.577 2.023.328 3.777-.329 5.8-2.158l-.675 9.846c-2.113-2.44-3.012-2.811-5.125-3.102v1.484c1.07 3.938 6.293 7.98 11.34 4.04 0 0 .834-2.245.404-3.238-.322-.744-1.18-1.499-1.99-1.48-1.278.032-2.594 2.544-2.594 2.544s-.57-2.567-.543-3.895c.024-1.17-.034-2.548.732-3.433.571-.66 1.585-.964 2.456-.907 1.154.075 2.94 1.58 2.94 1.58s-.089-2.204.01-3.337c.052-.582.377-1.295.726-1.764.799-1.07 1.303-1.55 2.113-2.358.6.755 1.565 1.707 2.076 2.94.223.54.363 1.312.27 1.89-.183 1.122-.81 3.236-.81 3.236s2.1-1.02 3.237-.809c.859.16 1.767.703 2.158 1.484.525 1.045.13 2.367-.135 3.507-.3 1.294-1.483 3.642-1.483 3.642s-.658-2.758-1.889-3.103c-.78-.218-1.797.303-2.293.944-.661.858-.404 3.238-.404 3.238-.36-.18.945 2.532 3.507 3.776 1.216.59 2.716.509 4.046.27 1.407-.252 2.58-.798 3.642-1.753.93-.835 2.158-3.238 2.158-3.238-1.917-.795-3.902-1.457-6.879-.134l1.888-7.959c1.596 1.546 2.962 3.804 5.935 4.317-.028-2.742.07-5.388-1.348-9.172l2.62.482 5.877 3.16s-1.161 2.241-2.342 4.6c-.64 1.28-1.287 2.596-1.756 3.605-2.738 5.896-6.558 18.366-6.558 18.366l-.118.336c-19.54-4.374-38.638-3.864-57.46-.336z"
         fill="none"
         stroke="#000"
         stroke-width=".46498685999999995"
         stroke-linecap="butt"
         stroke-linejoin="miter"
         stroke-miterlimit="4"
         stroke-opacity="1"
         display="inline"
         id="path287" />
    </g>
    <g
       stroke-width=".598"
       id="g311">
      <g
         font-size="medium"
         font-style="normal"
         font-variant="normal"
         font-weight="400"
         font-stretch="normal"
         letter-spacing="normal"
         word-spacing="normal"
         direction="ltr"
         writing-mode="lr-tb"
         text-anchor="start"
         color="#000"
         visibility="visible"
         font-family="Bitstream Vera Sans"
         id="g297">
        <path
           d="M271.225 97.022c19.892-4.364 39.058-3.947 57.83.021 3.233 1.064 3.966-6.318.808-7.89-19.577-5.806-54.322-2.47-59.796 0-1.647-.293-3.912 7.666 1.158 7.87z"
           style="text-indent:0;text-align:start;line-height:normal;text-transform:none;block-progression:tb;marker:none;-inkscape-font-specification:Bitstream Vera Sans"
           text-decoration="none"
           fill="#fff"
           fill-opacity="1"
           stroke="none"
           display="inline"
           overflow="visible"
           id="path291" />
        <path
           d="M271.225 97.022c19.892-4.364 39.058-3.947 57.83.021 1.071.353 2.186-1.851 2.657-2.834-26.883-6.69-42.873-4.9-63.624 0-.186-.72-.289.438.582 1.452.596.695 2.1 1.255 2.555 1.362z"
           style="text-indent:0;text-align:start;line-height:normal;text-transform:none;block-progression:tb;marker:none;-inkscape-font-specification:Bitstream Vera Sans"
           text-decoration="none"
           fill="#ccc"
           stroke="none"
           display="inline"
           overflow="visible"
           id="path293" />
        <path
           d="M271.225 97.022c19.892-4.364 39.058-3.947 57.83.021 3.233 1.064 3.966-6.318.808-7.89-19.577-5.806-54.322-2.47-59.796 0-1.647-.293-3.912 7.666 1.158 7.87z"
           style="text-indent:0;text-align:start;line-height:normal;text-transform:none;block-progression:tb;marker:none;-inkscape-font-specification:Bitstream Vera Sans"
           text-decoration="none"
           fill="none"
           stroke="#000"
           stroke-miterlimit="4"
           stroke-opacity="1"
           display="inline"
           overflow="visible"
           stroke-width=".46498685999999995"
           id="path295" />
      </g>
      <g
         fill="#000"
         fill-opacity="1"
         display="inline"
         stroke="none"
         id="g309">
        <path
           d="M296.5 91.766s2.543-1.044 3.884-1.3c1.38-.264 4.208-.23 4.208-.23l-1.58-.792s-1.515-.232-2.797-.626c-.732-.226-1.587-.623-2.318-.655-.931-.04-2.256.325-2.256.325l2.511.629s-.729.177-1.279.371c-.393.139-1.465.72-1.465.72l2.86.025s-.83.391-1.163.697c-.253.232-.605.836-.605.836z"
           display="inline"
           id="path299" />
        <g
           stroke-width=".598"
           stroke-miterlimit="4"
           id="g303">
          <path
             d="M284.792 92.469s2.389-1.36 3.686-1.786c1.334-.438 4.144-.767 4.144-.767l-1.67-.583s-1.53-.036-2.852-.264c-.755-.13-1.654-.414-2.383-.352-.929.078-2.196.61-2.196.61l2.57.303s-.7.269-1.22.532c-.372.187-1.36.901-1.36.901l2.838-.341s-.773.494-1.064.84c-.221.263-.493.907-.493.907zM308.32 92.355s2.602-.888 3.955-1.063c1.394-.18 4.215.024 4.215.024l-1.53-.885s-1.498-.324-2.753-.795c-.717-.27-1.546-.717-2.274-.793-.927-.097-2.271.187-2.271.187l2.468.78s-.739.133-1.3.293c-.4.115-1.505.63-1.505.63l2.853.198s-.852.34-1.203.625c-.267.217-.654.799-.654.799z"
             display="inline"
             id="path301" />
        </g>
        <g
           stroke-width=".598"
           stroke-miterlimit="4"
           id="g307">
          <path
             d="M273.342 93.88s2.212-1.63 3.45-2.204c1.275-.591 4.027-1.246 4.027-1.246l-1.726-.384s-1.525.143-2.864.072c-.765-.041-1.69-.218-2.408-.072-.913.187-2.109.863-2.109.863h2.588s-.664.35-1.15.671c-.347.23-1.246 1.054-1.246 1.054l2.78-.67s-.71.58-.959.958c-.19.287-.383.959-.383.959zM320.055 93.648s2.679-.614 4.044-.648c1.404-.034 4.189.46 4.189.46l-1.43-1.038s-1.456-.477-2.656-1.075c-.686-.343-1.464-.874-2.18-1.025-.912-.193-2.278-.049-2.278-.049l2.374 1.031s-.748.056-1.323.158c-.41.072-1.563.47-1.563.47l2.818.492s-.883.25-1.262.498c-.288.188-.733.726-.733.726z"
             display="inline"
             id="path305" />
        </g>
      </g>
    </g>
    <g
       stroke-width=".598"
       id="g371">
      <g
         transform="matrix(.77757 0 0 .77757 165.732 1.269)"
         id="g323">
        <rect
           width="12.202"
           height="7.05"
           ry="2.249"
           x="166.576"
           y="98.883"
           fill="#1d369e"
           fill-opacity="1"
           stroke="none"
           id="rect313" />
        <path
           d="M168.265 104.495l-.058-3.238.867-.752 7.575-.058 1.04 1.62-.057 2.08h1.098l.058-3.41-1.387-1.967-9.02.116-1.678 1.272.058 3.816.578.694.926-.173z"
           fill="#4163ef"
           fill-opacity="1"
           stroke="none"
           id="path315" />
        <path
           d="M166.935 102.933l2.081 1.388 7.17.058.925-.925.058-2.082 1.214-1.85.637 1.272-.29 3.758-1.156 1.562-8.847-.174-1.85-1.214-.29-.752.348-1.04z"
           fill="#2545cb"
           fill-opacity="1"
           stroke="none"
           id="path317" />
        <rect
           width="12.202"
           height="7.05"
           ry="2.249"
           x="166.576"
           y="98.883"
           fill="none"
           stroke="#000"
           stroke-width=".598"
           stroke-miterlimit="4"
           stroke-opacity="1"
           display="inline"
           id="rect319" />
        <rect
           width="3.812"
           height="1.598"
           ry=".752"
           x="168.944"
           y="101.06"
           fill="#5674f1"
           fill-opacity="1"
           stroke="none"
           id="rect321" />
      </g>
      <path
         d="M288.806 81.641a4.507 2.748-6.311 1 1-8.898 1.352 4.507 2.748-6.311 1 1 8.898-1.352z"
         fill="#2ca02c"
         fill-opacity="1"
         stroke="none"
         id="path325" />
      <path
         d="M279.936 83.253c3.826.666 6.976.396 8.133-2.634l.774.891v1.278l-1.936 1.51-2.44.814-3.02-.504-1.511-1.355z"
         fill="#237f23"
         fill-opacity="1"
         stroke="none"
         id="path327" />
      <path
         d="M279.975 82.556c1.697-1.447 4.038-2.177 6.66-2.595l-2.168-.503-2.478.58-1.51 1.278-.504 1.24z"
         fill="#32b532"
         fill-opacity="1"
         stroke="none"
         id="path329" />
      <path
         d="M157.483 104.188a5.775 4.23 0 1 1-11.55 0 5.775 4.23 0 1 1 11.55 0z"
         transform="matrix(.77038 -.11702 .14164 .63647 152.728 33.757)"
         fill="none"
         stroke="#000"
         stroke-width=".653"
         stroke-miterlimit="4"
         stroke-opacity="1"
         display="inline"
         id="path331" />
      <path
         d="M284.39 81.568a1.394.716 0 1 1-2.789 0 1.394.716 0 1 1 2.789 0z"
         fill="#6cd66c"
         fill-opacity="1"
         stroke="none"
         id="path333" />
      <g
         id="g345">
        <path
           d="M269.32 87.587l4.6-3.459-6.957-2.657s-1.064 1.018-1.265 1.898c-.278 1.217-.272 2.06.506 3.036.694.87 3.116 1.182 3.116 1.182z"
           fill="#d71e1e"
           fill-opacity="1"
           stroke="none"
           id="path335" />
        <path
           d="M265.574 85.543l1 1.333 2.917.75 4.417-3.5c-2.57.714-4.542 2.127-8.334 1.417z"
           fill="#9b1616"
           fill-opacity="1"
           stroke="none"
           id="path337" />
        <path
           d="M265.408 83.96c2.722-1.604 5.445-.277 8.167-.084l-6.584-2.417-1.167 1.25-.416 1.25z"
           fill="#e43a3a"
           fill-opacity="1"
           stroke="none"
           id="path339" />
        <path
           d="M268.241 83.751a1.083.792 0 1 1-2.167 0 1.083.792 0 1 1 2.167 0z"
           fill="#ed7676"
           fill-opacity="1"
           stroke="none"
           id="path341" />
        <path
           d="M269.32 87.587l4.6-3.459-6.957-2.657s-1.064 1.018-1.265 1.898c-.278 1.217-.272 2.06.506 3.036.694.87 3.116 1.182 3.116 1.182z"
           fill="none"
           stroke="#000"
           stroke-width=".46498685999999995"
           stroke-linecap="butt"
           stroke-linejoin="miter"
           stroke-miterlimit="4"
           stroke-opacity="1"
           display="inline"
           id="path343" />
      </g>
      <g
         display="inline"
         id="g369">
        <path
           d="M311.194 81.641a2.748 4.507-83.689 1 1 8.898 1.352 2.748 4.507-83.689 1 1-8.898-1.352z"
           fill="#2ca02c"
           fill-opacity="1"
           stroke="none"
           id="path347" />
        <path
           d="M320.064 83.253c-7.025 1.29-7.375-.499-8.907-1.743v1.278l1.936 1.51 2.44.814 3.02-.504 1.511-1.355z"
           fill="#237f23"
           fill-opacity="1"
           stroke="none"
           id="path349" />
        <path
           d="M320.025 82.556c-1.697-1.447-5.48-1.567-8.103-1.985l3.61-1.113 2.48.58 1.51 1.278.503 1.24z"
           fill="#32b532"
           fill-opacity="1"
           stroke="none"
           id="path351" />
        <path
           d="M157.483 104.188a5.775 4.23 0 1 1-11.55 0 5.775 4.23 0 1 1 11.55 0z"
           transform="matrix(-.77038 -.11702 -.14164 .63647 447.272 33.757)"
           fill="none"
           stroke="#000"
           stroke-width=".653"
           stroke-miterlimit="4"
           stroke-opacity="1"
           display="inline"
           id="path353" />
        <path
           d="M312.99 81.395a.716 1.394 90 1 1 2.788 0 .716 1.394 90 1 1-2.789 0z"
           fill="#6cd66c"
           fill-opacity="1"
           stroke="none"
           id="path355" />
        <g
           id="g367">
          <path
             d="M330.68 87.587l-4.6-3.459 6.957-2.657s1.064 1.018 1.265 1.898c.278 1.217.272 2.06-.506 3.036-.694.87-3.116 1.182-3.116 1.182z"
             fill="#d71e1e"
             fill-opacity="1"
             stroke="none"
             id="path357" />
          <path
             d="M334.426 85.543l-1 1.333-2.917.75-4.417-3.5c2.57.714 4.542 2.127 8.334 1.417z"
             fill="#9b1616"
             fill-opacity="1"
             stroke="none"
             id="path359" />
          <path
             d="M334.592 83.96c-2.722-1.604-5.445-.277-8.167-.084l6.584-2.417 1.167 1.25.416 1.25z"
             fill="#e43a3a"
             fill-opacity="1"
             stroke="none"
             id="path361" />
          <path
             d="M331.759 83.751a.792 1.083 90 1 1 2.167 0 .792 1.083 90 1 1-2.167 0z"
             fill="#ed7676"
             fill-opacity="1"
             stroke="none"
             id="path363" />
          <path
             d="M330.68 87.587l-4.6-3.459 6.957-2.657s1.064 1.018 1.265 1.898c.278 1.217.272 2.06-.506 3.036-.694.87-3.116 1.182-3.116 1.182z"
             fill="none"
             stroke="#000"
             stroke-width=".46498685999999995"
             stroke-linecap="butt"
             stroke-linejoin="miter"
             stroke-miterlimit="4"
             stroke-opacity="1"
             display="inline"
             id="path365" />
        </g>
      </g>
    </g>
    <g
       stroke-width=".598"
       id="g381">
      <path
         d="M297.09 67.846a2.91 2.91 0 1 1 5.82 0 2.91 2.91 0 1 1-5.82 0z"
         fill="#ccc"
         fill-opacity="1"
         stroke="none"
         id="path373" />
      <path
         d="M297.527 67.472a2.197 2.258 90 1 1 4.516 0 2.197 2.258 90 1 1-4.516 0z"
         fill="#e6e6e6"
         stroke="none"
         id="path375" />
      <path
         d="M297.722 67.089a1.67 1.677 0 1 1 3.34 0 1.67 1.677 0 1 1-3.34 0z"
         fill="#fff"
         fill-opacity="1"
         stroke="none"
         id="path377" />
      <path
         d="M297.09 67.846a2.91 2.91 0 1 1 5.82 0 2.91 2.91 0 1 1-5.82 0z"
         fill="none"
         stroke="#000"
         stroke-width=".46498685999999995"
         stroke-miterlimit="4"
         stroke-opacity="1"
         display="inline"
         id="path379" />
    </g>
    <g
       stroke-width=".598"
       id="g403">
      <g
         display="inline"
         id="g391">
        <path
           d="M330.561 74.112a2.91 2.91 0 1 1 5.82 0 2.91 2.91 0 1 1-5.82 0z"
           fill="#ccc"
           fill-opacity="1"
           stroke="none"
           id="path383" />
        <path
           d="M330.998 73.738a2.197 2.258 90 1 1 4.516 0 2.197 2.258 90 1 1-4.516 0z"
           fill="#e6e6e6"
           stroke="none"
           id="path385" />
        <path
           d="M331.193 73.354a1.67 1.677 0 1 1 3.34 0 1.67 1.677 0 1 1-3.34 0z"
           fill="#fff"
           fill-opacity="1"
           stroke="none"
           id="path387" />
        <path
           d="M330.561 74.112a2.91 2.91 0 1 1 5.82 0 2.91 2.91 0 1 1-5.82 0z"
           fill="none"
           stroke="#000"
           stroke-width=".46498685999999995"
           stroke-miterlimit="4"
           stroke-opacity="1"
           display="inline"
           id="path389" />
      </g>
      <g
         display="inline"
         id="g401">
        <path
           d="M263.62 74.112a2.91 2.91 0 1 1 5.819 0 2.91 2.91 0 1 1-5.82 0z"
           fill="#ccc"
           fill-opacity="1"
           stroke="none"
           id="path393" />
        <path
           d="M264.057 73.738a2.197 2.258 90 1 1 4.515 0 2.197 2.258 90 1 1-4.515 0z"
           fill="#e6e6e6"
           stroke="none"
           id="path395" />
        <path
           d="M264.25 73.354a1.67 1.677 0 1 1 3.34 0 1.67 1.677 0 1 1-3.34 0z"
           fill="#fff"
           fill-opacity="1"
           stroke="none"
           id="path397" />
        <path
           d="M263.62 74.112a2.91 2.91 0 1 1 5.819 0 2.91 2.91 0 1 1-5.82 0z"
           fill="none"
           stroke="#000"
           stroke-width=".46498685999999995"
           stroke-miterlimit="4"
           stroke-opacity="1"
           display="inline"
           id="path399" />
      </g>
    </g>
  </g>
  <g
     id="g1009"
     inkscape:label="redhand"
     transform="matrix(1.0595527,0,0,1.0595527,79.749492,-7.5341655)">
    <path
       sodipodi:nodetypes="cccssssscscsscsccssscssssssscssccssscscsssccscssscccc"
       d="m 219.25904,166.66105 c 1.47623,-1.45257 3.62815,-2.08657 5.09863,-5.88719 1.23461,-3.27182 2.17456,-8.44052 3.01355,-11.55627 0.30953,-1.09784 0.72407,-3.22152 1.09756,-4.7784 0.32662,-1.36152 0.90913,-2.7712 1.07527,-3.33313 0.32308,-1.09273 0.43188,-2.36825 0.57388,-3.26 0.30903,-1.94054 0.5732,-3.28888 -0.89048,-3.14437 -1.52898,0.15096 -1.97325,0.37768 -2.60348,1.29849 -0.58159,0.84974 -1.32971,2.07255 -1.76935,3.44288 -0.60092,1.98218 -1.03426,3.76929 -1.56934,5.15228 -0.62179,1.60708 -0.73646,1.38669 -1.64054,3.29531 -1.24865,-1.65981 -1.33748,-2.99954 -1.6458,-5.30924 -0.30673,-2.29782 -0.55944,-4.74213 -0.64654,-7.37449 -0.16382,-4.95076 -0.4524,-10.1388 -0.51272,-12.06144 -0.16223,-2.53854 0.0133,-6.19137 -0.58202,-8.06736 -0.2775,-0.87445 -0.88744,-2.07959 -2.05442,-2.04289 -1.35359,0.01 -2.21698,1.07384 -2.39981,2.18004 -0.13175,0.87414 -0.19694,2.55045 -0.24994,3.68243 -0.077,1.64502 -0.0667,3.05501 -0.004,4.67468 0.0688,1.78021 0.0151,7.23696 -0.0203,9.01211 -0.0654,3.27744 -0.47267,3.45832 -1.08099,3.41644 -0.4689,-0.39162 -0.23161,-6.69477 -0.41709,-12.13602 -0.0704,-2.06436 -0.12503,-4.79276 -0.16093,-6.68825 -0.029,-1.53295 -0.0283,-3.36608 -0.19273,-4.55696 -0.28065,-2.03184 -0.8783,-3.34063 -2.35218,-3.34063 -0.99407,0 -1.81643,0.0334 -2.27162,2.29301 -0.24534,1.2179 -0.35023,4.18955 -0.31683,5.81751 0.0373,1.81825 0.0447,2.89002 0.0939,5.39182 0.0898,4.57085 0.48348,12.86914 -0.60709,13.07765 -0.95481,-0.20459 -0.81353,-2.00028 -0.98078,-6.3422 -0.0659,-1.71046 -0.20943,-4.63764 -0.3012,-6.61048 -0.10972,-2.35903 -0.24064,-5.79423 -0.29976,-7.36791 -0.16084,-1.45365 -0.30224,-3.40286 -2.13164,-3.23846 -0.96032,-0.11738 -1.66448,0.61509 -2.07391,3.20421 -0.22801,1.44189 -0.0726,7.18926 0.0145,9.10082 0.17333,3.80527 0.1183,4.73539 0.13968,7.1312 0.0208,2.32477 0.2452,5.49198 -0.62068,5.54684 -1.04246,-0.0153 -0.74332,-1.69522 -0.91455,-4.35813 -0.16801,-2.61288 -0.27406,-5.94559 -0.25279,-5.18065 0,-1.34533 -0.16617,-3.32206 -0.28753,-4.97458 -0.0949,-1.29053 -0.0356,-2.71431 -1.4354,-2.60059 -1.42071,0.11542 -2.29283,0.59574 -2.58674,3.02805 -0.1904,1.57562 -0.24265,4.98198 -0.28409,6.21667 0.15272,3.1407 -0.61448,9.52948 -0.99471,11.61161 -0.10386,1.47537 -0.75823,4.32809 -1.00457,6.3849 -0.52998,4.42651 -0.74019,7.48802 -0.15434,10.14074 0.46046,2.31491 0.78691,4.12478 1.68274,5.98201 0.83192,1.72476 2.38746,3.37637 2.72959,4.79344 0.6679,2.76639 0.35549,8.10587 0.35549,10.34925 0,2.24339 1.94877,2.36428 5.98307,1.49554 6.59595,-1.42089 10.20037,1.42087 15.64695,-0.67303 -0.69104,-6.20659 0.65527,-9.93795 0.61982,-12.18134 z"
       id="path3484-5"
       style="fill:#cf142b;fill-opacity:1;stroke:#161111;stroke-width:0.94945729;stroke-linecap:round;stroke-linejoin:round;stroke-miterlimit:4;stroke-dasharray:none;stroke-opacity:1"
       inkscape:connector-curvature="0" />
    <path
       sodipodi:nodetypes="cc"
       inkscape:connector-curvature="0"
       style="fill:none;fill-opacity:1;stroke:#161111;stroke-width:0.94999999;stroke-miterlimit:4;stroke-dasharray:none;stroke-opacity:1"
       id="path3488-5"
       d="m 210.25099,160.65706 c 0.15032,-7.6679 7.10491,-16.02921 9.77711,-17.67446" />
    <path
       sodipodi:nodetypes="cccc"
       inkscape:connector-curvature="0"
       id="path3953-9"
       d="m 200.34284,148.06421 c 2.05418,-0.8101 4.18709,-1.3982 6.27428,-2.1119 2.55434,-0.72051 5.02785,-1.75322 7.6637,-2.16138 1.26995,-0.25881 4.30908,-1.06687 5.60442,-1.15428"
       style="fill:none;stroke:#161111;stroke-width:0.94999999;stroke-linecap:butt;stroke-linejoin:miter;stroke-miterlimit:4;stroke-dasharray:none;stroke-opacity:1" />
    <path
       sodipodi:nodetypes="ccccsc"
       inkscape:connector-curvature="0"
       id="path3960-0"
       d="m 196.37517,167.9824 c 0.2192,0.39 0.73719,0.4111 1.46518,0.46569 0.79999,0.0119 0.92234,0.0371 1.42866,0.034 0.89582,-0.0129 1.47455,-0.0137 2.3703,0.003 0.68144,-0.0215 2.98867,-0.46473 4.70583,-0.60288 0.96102,-0.0773 1.72798,0.14927 2.22598,0.18287"
       style="fill:none;stroke:#161111;stroke-width:0.94999999;stroke-linecap:round;stroke-linejoin:round;stroke-miterlimit:4;stroke-dasharray:none;stroke-opacity:1" />
    <path
       sodipodi:nodetypes="csccc"
       inkscape:connector-curvature="0"
       id="path3962-8"
       d="m 207.37544,167.88216 c 0.14622,0.12008 1.44908,0.11259 2.40739,0.4086 0.8459,0.26133 1.43766,0.31529 1.59281,0.37659 0.59043,0.0638 0.20066,0.37733 3.50599,0.11118 2.05032,0.13101 3.86567,-1.63948 4.37741,-2.11748"
       style="fill:none;stroke:#161111;stroke-width:0.9495669px;stroke-linecap:round;stroke-linejoin:round;stroke-opacity:1" />
  </g>
</svg>
