<?xml version="1.0" encoding="UTF-8" standalone="no"?>
<svg xmlns:dc="http://purl.org/dc/elements/1.1/" xmlns:cc="http://creativecommons.org/ns#" xmlns:rdf="http://www.w3.org/1999/02/22-rdf-syntax-ns#" xmlns:svg="http://www.w3.org/2000/svg" xmlns="http://www.w3.org/2000/svg" xmlns:xlink="http://www.w3.org/1999/xlink" version="1.1" width="900" height="600" viewBox="0 0 900 600" xml:space="preserve">
<rect width="899.96" height="600" fill="#ffffff"/>
<path d="m686.68 277.5c0-66.792-51.373-121.57-116.79-126.92-17.61-49.223-64.67-84.403-119.9-84.403-55.257 0-102.28 35.181-119.89 84.403-65.415 5.346-116.81 60.123-116.81 126.92 0 39.217 17.776 74.315 45.695 97.659-2.536 9.991-3.873 20.492-3.873 31.267 0 70.334 57.009 127.36 127.36 127.36 24.805 0 47.955-7.083 67.522-19.36 19.568 12.277 42.691 19.36 67.536 19.36 70.32 0 127.34-57.022 127.34-127.36 0-10.774-1.339-21.275-3.874-31.267 27.906-23.344 45.681-58.441 45.681-97.659z" fill="#ffffff" fill-rule="evenodd"/>
<path d="m451.72 190.98c-32.534 0-58.923 26.402-58.923 58.91 0 32.562 26.389 58.952 58.923 58.952 32.563 0 58.952-26.39 58.952-58.952 0-32.508-26.389-58.91-58.952-58.91zm-.014 87.339c-15.682 0-28.4-12.707-28.4-28.43 0-15.668 12.719-28.415 28.4-28.415 15.71 0 28.442 12.746 28.442 28.415.001 15.723-12.732 28.43-28.442 28.43z" fill="#003283" fill-rule="evenodd"/>
<path d="m686.68 277.5c0-66.792-51.373-121.57-116.79-126.92-17.61-49.223-64.67-84.403-119.9-84.403-55.257 0-102.28 35.181-119.89 84.403-65.415 5.346-116.81 60.123-116.81 126.92 0 39.217 17.776 74.315 45.695 97.659-2.536 9.991-3.873 20.492-3.873 31.267 0 70.334 57.009 127.36 127.36 127.36 24.805 0 47.955-7.083 67.522-19.36 19.568 12.277 42.691 19.36 67.536 19.36 70.32 0 127.34-57.022 127.34-127.36 0-10.774-1.339-21.275-3.874-31.267 27.906-23.344 45.681-58.441 45.681-97.659zm-67.949 85.864c5.637 12.953 8.75 27.215 8.75 42.234 0 58.621-47.5 106.11-106.11 106.11-26.403 0-50.587-9.66-69.149-25.617-18.575 15.957-42.732 25.617-69.148 25.617-58.621 0-106.11-47.487-106.11-106.11 0-14.371 2.88-28.069 8.048-40.594-29.931-18.784-49.857-52.035-49.857-89.972 0-58.607 47.486-106.11 106.09-106.11 2.205 0 4.354.042 6.504.221 11.629-45.985 53.273-80.007 102.85-80.007 49.566 0 91.21 34.022 102.84 80.007 2.149-.179 4.342-.221 6.505-.221 58.607 0 106.11 47.5 106.11 106.11 0 36.821-18.823 69.301-47.334 88.332z" fill="#003283" fill-rule="evenodd"/>
<path d="m651.8 277.75c0-53.702-43.488-97.191-97.19-97.191-3.06 0-6.159.179-9.177.427-9.688-43.448-48.479-75.873-94.82-75.873-46.356 0-85.134 32.425-94.808 75.873-3.004-.248-6.063-.427-9.122-.427-53.702 0-97.192 43.489-97.192 97.191 0 35.912 19.499 67.273 48.533 84.101-5.153 11.85-8.019 24.846-8.019 38.583 0 53.701 43.545 97.191 97.205 97.191 24.97 0 47.748-9.439 64.973-24.9 17.212 15.461 39.989 24.9 64.96 24.9 53.659 0 97.15-43.49 97.15-97.191 0-14.248-3.06-27.808-8.614-40.044 27.699-17.102 46.121-47.707 46.121-82.64zm-62.615 76.521c8.792 13.435 13.917 29.462 13.917 46.687 0 47.128-38.198 85.325-85.312 85.325-26.61 0-50.312-12.14-65.965-31.169-15.655 19.029-39.384 31.169-65.952 31.169-47.155 0-85.354-38.197-85.354-85.325 0-16.716 4.823-32.342 13.132-45.516-30.537-12.968-51.979-43.284-51.979-78.547 0-47.155 38.198-85.354 85.354-85.354 6.711 0 13.285.812 19.595 2.288 4.438-42.939 40.734-76.439 84.858-76.439 43.917 0 80.089 33.197 84.788 75.873 5.513-1.116 11.189-1.722 17.005-1.722 47.113 0 85.313 38.198 85.313 85.354.001 34.272-20.201 63.817-49.4 77.376z" fill="#e41f20" fill-rule="evenodd"/>
<polygon points="459.5 217.46 452.44 194.91 444.68 217.46 444.68 217.46" fill="#ffffff" fill-rule="evenodd"/>
<polygon points="442.23 217.95 424.81 201.88 429.4 225.35 429.4 225.35" fill="#ffffff" fill-rule="evenodd"/>
<polygon points="427.51 226.94 404.43 221.78 420.1 239.82 420.1 239.82" fill="#ffffff" fill-rule="evenodd"/>
<polygon points="419.29 242.14 396.72 249.2 419.29 256.96 419.29 256.96" fill="#ffffff" fill-rule="evenodd"/>
<polygon points="419.76 259.41 403.74 276.81 427.17 272.24 427.17 272.24" fill="#ffffff" fill-rule="evenodd"/>
<polygon points="428.8 274.14 423.59 297.22 441.61 281.54 441.61 281.54" fill="#ffffff" fill-rule="evenodd"/>
<polygon points="443.95 282.37 451.02 304.93 458.77 282.37 458.77 282.37" fill="#ffffff" fill-rule="evenodd"/>
<polygon points="461.22 281.89 478.65 297.91 474.08 274.48 474.08 274.48" fill="#ffffff" fill-rule="evenodd"/>
<polygon points="475.95 272.85 499.06 278.01 483.34 260.02 483.34 260.02" fill="#ffffff" fill-rule="evenodd"/>
<polygon points="484.16 257.69 506.76 250.63 484.16 242.87 484.16 242.87" fill="#ffffff" fill-rule="evenodd"/>
<polygon points="483.72 240.42 499.75 223.02 476.32 227.59 476.32 227.59" fill="#ffffff" fill-rule="evenodd"/>
<polygon points="474.68 225.69 479.85 202.61 461.85 218.29 461.85 218.29" fill="#ffffff" fill-rule="evenodd"/>
<g transform="matrix(.090023 0 0 .090023 132.87 -.10172)">
<path transform="matrix(11.108 0 0 11.108 -1476 222.17)" d="m347.8 350.67c-1.8633 0.98438-4.1836 1.4766-6.9609 1.4766-3.586 0-6.457-1.1543-8.6133-3.4629s-3.2344-5.3379-3.2344-9.0879c0-4.0312 1.2129-7.289 3.6387-9.7734s5.502-3.7265 9.2285-3.7266c2.3906 2e-5 4.3711 0.34572 5.9414 1.0371v3.1465c-1.8047-1.0078-3.7969-1.5117-5.9766-1.5117-2.8945 2e-5 -5.2412 0.96682-7.04 2.9004-1.7988 1.9336-2.6982 4.5176-2.6982 7.752 0 3.0703 0.84082 5.5166 2.5225 7.3389 1.6816 1.8223 3.8877 2.7334 6.6182 2.7334 2.5312 0 4.7226-0.5625 6.5742-1.6875z"/>
<path transform="matrix(11.108 0 0 11.108 -1476 222.17)" d="m371.88 351.72h-2.9531v-11.496h-13.043v11.496h-2.9531v-25.207h2.9531v11.057h13.043v-11.057h2.9531z"/>
<path transform="matrix(11.108 0 0 11.108 -1476 222.17)" d="m381.48 351.72h-2.9531v-25.207h2.9531z"/>
<path transform="matrix(11.108 0 0 11.108 -1476 222.17)" d="m408.41 351.72h-3.6211l-12.973-20.092c-.32813-.50389-.59766-1.0312-.80859-1.582h-.10547c.0937.53909.14062 1.6934.14062 3.4629v18.211h-2.9531v-25.207h3.832l12.621 19.775c.52733.82032.86717 1.3828 1.0195 1.6875h.0703c-.11721-.72656-.17581-1.9629-.17579-3.709v-17.754h2.9531z"/>
<path transform="matrix(11.108 0 0 11.108 -1476 222.17)" d="m428.38 351.72h-13.359v-25.207h12.797v2.6719h-9.8438v8.3848h9.1055v2.6543h-9.1055v8.8242h10.406z"/>
<path transform="matrix(11.108 0 0 11.108 -1476 222.17)" d="m432.05 350.7v-3.4805c.39843.35157.87597.66797 1.4326.94922.55663.28125 1.1426.51856 1.7578.71191.61523.19337 1.2334.34278 1.8545.44825.62109.10547 1.1953.1582 1.7227.1582 1.8164 0 3.1728-.33691 4.0693-1.0107.89647-.67383 1.3447-1.6436 1.3447-2.9092-2e-5-.67968-.14943-1.2715-.44824-1.7754-.29885-.5039-.71193-.96386-1.2393-1.3799-.52736-.416-1.1514-.81444-1.8721-1.1953-.72071-.38085-1.4971-.78221-2.3291-1.2041-.87892-.4453-1.6992-.89647-2.4609-1.3535-.76172-.45702-1.4238-.96093-1.9863-1.5117-.5625-.55077-1.0049-1.1748-1.3272-1.8721-.32227-.69725-.4834-1.5146-.4834-2.4522 0-1.1484.25196-2.1474.75586-2.9971.50391-.84959 1.166-1.5498 1.9863-2.1006.82031-.55076 1.7549-.96091 2.8037-1.2305 1.0488-.2695 2.1182-.40427 3.208-.40429 2.4844 2e-5 4.2949.29885 5.4316.89648v3.3223c-1.4883-1.0312-3.3984-1.5469-5.7305-1.5469-.64454 2e-5-1.2891.0674-1.9336.20215-.64454.13479-1.2188.35451-1.7227.65918-.50391.30471-.91407.69729-1.2305 1.1777-.31641.48049-.47461 1.0664-.47461 1.7578 0 .64455.12012 1.2012.36036 1.6699.24022.46876.59472.8965 1.0635 1.2832.46875.38674 1.04.76173 1.7139 1.125.67382.3633 1.4502.76173 2.3291 1.1953.90233.44533 1.7578.91408 2.5664 1.4062.80858.4922 1.5176 1.0371 2.127 1.6348.60936.59767 1.0928 1.2598 1.4502 1.9863.3574.72657.53611 1.5586.53613 2.4961-2e-5 1.2422-.24318 2.294-.72949 3.1553-.48635.86133-1.1426 1.5615-1.9688 2.1006-.82619.53906-1.7783.92871-2.8564 1.169-1.0781.24023-2.2148.36035-3.4102.36035-.39844 0-.89063-.0322-1.4766-.0967-.58594-.0645-1.1836-.15821-1.793-.28125-.60938-.12305-1.1865-.27539-1.7314-.45703-.54493-.18164-.98145-.38379-1.3096-.60645z"/>
<path transform="matrix(11.108 0 0 11.108 -1476 222.17)" d="m465.71 351.72h-13.359v-25.207h12.797v2.6719h-9.8438v8.3848h9.1055v2.6543h-9.1055v8.8242h10.406z"/>
<path transform="matrix(11.108 0 0 11.108 -1476 222.17)" d="m495.31 329.19h-7.2773v22.535h-2.9531v-22.535h-7.2598v-2.6719h17.49z"/>
<path transform="matrix(11.108 0 0 11.108 -1476 222.17)" d="m518.76 351.72h-3.2695l-2.6719-7.0664h-10.688l-2.5137 7.0664h-3.2871l9.668-25.207h3.0586zm-6.9082-9.7207-3.9551-10.74c-.12892-.35154-.25783-.91404-.38672-1.6875h-.0703c-.1172.71487-.25197 1.2774-.4043 1.6875l-3.9199 10.74z"/>
<path transform="matrix(11.108 0 0 11.108 -1476 222.17)" d="m525.41 351.72h-2.9531v-25.207h2.9531z"/>
<path transform="matrix(11.108 0 0 11.108 -1476 222.17)" d="m534.97 342.2v9.5273h-2.9531v-25.207h6.9258c2.6953 3e-5 4.7842.65628 6.2666 1.9688 1.4824 1.3125 2.2236 3.1641 2.2236 5.5547-2e-5 2.3906-.82326 4.3477-2.4697 5.8711-1.6465 1.5234-3.8701 2.2852-6.6709 2.2852zm0-13.008v10.336h3.0938c2.039 2e-5 3.5947-.4658 4.667-1.3975 1.0722-.93162 1.6084-2.247 1.6084-3.9463-2e-5-3.3281-1.9688-4.9922-5.9062-4.9922z"/>
<path transform="matrix(11.108 0 0 11.108 -1476 222.17)" d="m565.55 351.72h-13.359v-25.207h12.797v2.6719h-9.8438v8.3848h9.1055v2.6543h-9.1055v8.8242h10.406z"/>
<path transform="matrix(11.108 0 0 11.108 -1476 222.17)" d="m573.36 351.72h-2.9531v-25.207h2.9531z"/>
<path transform="matrix(11.108 0 0 11.108 -1476 222.17)" d="m410.99 393.16h-11.725v11.162h-2.373v-11.162h-11.707v-13.025h11.654v-7.4531h2.4258v7.418h11.725zm-2.373-2.2676v-8.5605h-9.3516v8.5605zm-11.777.0352.0527-8.5957h-9.334v8.5957z"/>
<path transform="matrix(11.108 0 0 11.108 -1476 222.17)" d="m449.45 377.26h-7.9277v2.4785h-2.2676v-2.4785h-10.371v2.4785h-2.2676v-2.4434h-7.9453v-1.9512h7.9102v-2.6543h2.2676v2.6543h10.371v-2.6543h2.2676v2.6191h7.9629zm.5625 21.814-14.854-.0352v5.291h-2.2676v-5.2559h-14.906v-1.9863h14.906v-2.8652h-13.043v-1.9863h4.7988v-3.7441h-6.6621v-2.0215h6.6094v-3.6738h-4.0957v-2.0391h26.965v2.0039h-4.1133v3.6738h6.6621v2.0215h-6.6094v3.7441h4.7461v1.9688h-13.078v2.8828h14.941zm-8.877-12.639v-3.6738h-6.0644v3.6738zm-8.2969 0 .0527-3.6738h-6.0645v3.6738zm8.2969 5.8008.0351-3.7793h-6.0996v3.7793zm-8.2441 0v-3.7793h-6.0293v3.7793z"/>
<path transform="matrix(11.108 0 0 11.108 -1476 222.17)" d="m484.47 376.22h-13.271v1.3184h10.547v1.7754h-23.449v-1.7402h10.635v-1.3184h-13.324v-1.8808h13.289v-1.6875h2.3027v1.6523h13.271zm-3.9902 9.3867h-20.988v-5.1152h20.988zm-2.2676-1.6875v-1.7754h-16.453v1.7754zm6.873 7.6289h-2.2324v-2.8125h-25.559v2.8125h-2.2676v-4.6758h30.059zm.93164 11.443h-31.957v-1.9336h14.871v-1.5469h-10.336v-1.7402h10.336v-1.6523l-10.635.47461-.68555-1.6699 2.918-.14062c1.7695-.85546 3.1992-1.8281 4.2891-2.918h-5.5723v-1.793h21.48v1.793h-13.025c-.93752.97267-2.1621 1.8984-3.6738 2.7773l13.219-.58007c-.83206-.35156-1.6992-.63867-2.6016-.86133l1.8106-1.0723c2.5195.73829 4.7519 1.9629 6.6973 3.6738l-1.7754 1.248c-.45706-.52734-1.0782-1.0078-1.8633-1.4414l-8.3496.4043v1.7226h9.9668v1.7402h-9.9668v1.5469h14.854z"/>
<path transform="matrix(11.108 0 0 11.108 -1476 222.17)" d="m522.21 396.45c-.38675 3.1524-.89945 5.1094-1.5381 5.8711-.63871.76172-1.4854 1.1426-2.54 1.1426h-6.1875c-2.4492 0-3.6738-1.1191-3.6738-3.3574v-27.422h2.3379v12.375c3.3632-1.1836 6.123-2.9004 8.2793-5.1504l1.8457 1.4414c-2.9063 2.9063-6.2813 4.9102-10.125 6.0117v12.674c-2e-5.77344.46873 1.1602 1.4062 1.1602h5.3965c.72654 1e-5 1.2334-.22558 1.5205-.67675.28708-.45117.63571-2.1709 1.0459-5.1592zm-19.74 7.9102h-2.3027v-4.7109l-9.3516 2.1621-1.0898-2.3379 10.441-2.4258v-11.953h-8.6309v-2.3027h8.5957v-10.107h2.3379z"/>
</g>
</svg>
